#!OML:ASF H:\Punching\Project 1\Capture day 1\Session 1\female.ASF
:FULLY-SPECIFIED
:DEGREES
1207
root -0.233005 9.90418 -0.438365 14.1286 9.01349 9.13302
lowerback 30.1408 1.65229 -1.20904
upperback 3.8353 1.84086 0.511396
thorax -12.3786 0.923565 0.556878
lowerneck -11.189 -0.385709 7.71217
upperneck 12.7534 -1.54329 -1.99797
head 5.62312 -0.521258 -2.00908
rclavicle 1.74931e-014 -3.18055e-015
rhumerus 50.3499 3.21644 -71.6771
rradius 62.4463
rwrist -23.119
rhand -18.9384 -24.2345
rfingers 7.12502
rthumb 7.36462 -54.0864
lclavicle 1.74931e-014 -3.18055e-015
lhumerus 38.1657 -32.4071 76.0992
lradius 133.476
lwrist 15.0092
lhand -21.5122 7.89674
lfingers 7.12502
lthumb 4.87976 37.8206
rfemur -28.1943 -45.0153 -33.2494
rtibia 119.659
rfoot -36.8812 4.77226
rtoes -37.9071
lfemur -95.6918 6.53017 -29.1103
ltibia 92.8846
lfoot -9.72731 -12.5197
ltoes 3.29504
1208
root -0.219937 9.92948 -0.435155 14.1202 8.24742 8.63177
lowerback 30.1072 1.4463 -1.29718
upperback 3.90238 1.52734 0.370611
thorax -12.2731 0.780666 0.571935
lowerneck -11.0281 0.130655 8.28567
upperneck 12.6789 -0.890869 -2.28049
head 5.60239 -0.199893 -2.1391
rclavicle 1.27222e-014 0
rhumerus 48.3733 4.69574 -72.035
rradius 68.5085
rwrist -26.2476
rhand -19.793 -24.903
rfingers 7.12502
rthumb 6.53961 -54.782
lclavicle 1.27222e-014 0
lhumerus 38.3763 -32.2373 75.9987
lradius 133.631
lwrist 15.5628
lhand -21.6655 8.07473
lfingers 7.12502
lthumb 4.73173 38.0019
rfemur -29.4042 -44.3395 -31.7585
rtibia 119.313
rfoot -36.9227 4.78987
rtoes -38.2202
lfemur -95.6631 6.72393 -28.0634
ltibia 93.0563
lfoot -10.0682 -11.8613
ltoes 2.66968
1209
root -0.201358 9.95531 -0.430869 14.0731 7.3453 8.03205
lowerback 30.1077 1.26146 -1.30509
upperback 3.98215 1.26588 0.230624
thorax -12.1703 0.65689 0.520026
lowerneck -10.8656 0.646598 8.86425
upperneck 12.5816 -0.232356 -2.6036
head 5.58013 0.121391 -2.28251
rclavicle 9.54166e-015 -7.95139e-015
rhumerus 46.305 6.09413 -72.5624
rradius 74.5002
rwrist -29.4299
rhand -20.4742 -25.4544
rfingers 7.12502
rthumb 5.88197 -55.3527
lclavicle 9.54166e-015 -7.95139e-015
lhumerus 38.652 -32.0599 75.8615
lradius 133.742
lwrist 16.1443
lhand -21.8057 8.2298
lfingers 7.12502
lthumb 4.59635 38.1599
rfemur -30.6941 -43.5119 -30.1264
rtibia 118.907
rfoot -36.968 4.79622
rtoes -38.4886
lfemur -95.6015 6.97965 -26.8545
ltibia 93.2999
lfoot -10.4462 -11.1385
ltoes 2.03121
1210
root -0.177349 9.98118 -0.42548 14.0043 6.31474 7.35527
lowerback 30.1448 1.09768 -1.25991
upperback 4.05877 1.04695 0.0883442
thorax -12.0909 0.549477 0.417251
lowerneck -10.6943 1.16264 9.45316
upperneck 12.4878 0.430557 -2.95252
head 5.56393 0.443861 -2.43572
rclavicle 9.54166e-015 2.54444e-014
rhumerus 44.1127 7.40236 -73.2488
rradius 80.3464
rwrist -32.5363
rhand -20.8228 -25.8539
rfingers 7.12502
rthumb 5.54546 -55.7613
lclavicle 9.54166e-015 2.54444e-014
lhumerus 38.9818 -31.8379 75.6868
lradius 133.795
lwrist 16.7383
lhand -21.9125 8.36965
lfingers 7.12502
lthumb 4.49329 38.302
rfemur -32.0263 -42.5618 -28.4079
rtibia 118.447
rfoot -37.0398 4.76532
rtoes -38.7101
lfemur -95.5081 7.29309 -25.5148
ltibia 93.6116
lfoot -10.8622 -10.3562
ltoes 1.38296
1211
root -0.148757 10.0062 -0.419451 13.9315 5.17856 6.62871
lowerback 30.2155 0.948664 -1.19494
upperback 4.12215 0.851953 -0.0556083
thorax -12.0456 0.451809 0.291168
lowerneck -10.5183 1.68353 10.0555
upperneck 12.4275 1.10229 -3.31842
head 5.56464 0.771176 -2.59614
rclavicle 5.56597e-015 -5.56597e-015
rhumerus 41.7864 8.63265 -74.0597
rradius 85.9933
rwrist -35.4614
rhand -20.8082 -26.0001
rfingers 7.12502
rthumb 5.5595 -55.9071
lclavicle 5.56597e-015 -5.56597e-015
lhumerus 39.3387 -31.5542 75.4756
lradius 133.795
lwrist 17.2983
lhand -21.961 8.47469
lfingers 7.12502
lthumb 4.44646 38.408
rfemur -33.3673 -41.5387 -26.6625
rtibia 117.949
rfoot -37.1584 4.66981
rtoes -38.9911
lfemur -95.3839 7.64896 -24.0788
ltibia 93.984
lfoot -11.3196 -9.51841
ltoes 0.654313
